<svg id="Capa_1" enable-background="new 0 0 512 512" height="512" viewBox="0 0 512 512" width="512" xmlns="http://www.w3.org/2000/svg" xmlns:xlink="http://www.w3.org/1999/xlink"><linearGradient id="SVGID_1_" gradientUnits="userSpaceOnUse" x1="265.782" x2="265.782" y1="270" y2="0"><stop offset="0" stop-color="#fd5900"/><stop offset="1" stop-color="#ffde00"/></linearGradient><linearGradient id="SVGID_2_" gradientUnits="userSpaceOnUse" x1="246.232" x2="246.232" y1="512" y2="242"><stop offset="0" stop-color="#ffe59a"/><stop offset="1" stop-color="#ffffd5"/></linearGradient><g id="Arrow_138_"><g><g><path d="m439.312 76.626c-46.423-46.437-113.051-76.626-183.222-76.626-60.352 0-119.444 22.178-165.088 61.479l-22.354-37.265c-3.281-5.449-9.639-8.174-15.82-6.987-6.24 1.26-10.986 6.299-11.895 12.583l-21.211 148.491c-1.447 10.032 7.27 18.358 16.963 16.978l148.477-21.211c6.299-.908 11.338-5.654 12.598-11.88s-1.553-12.568-7.002-15.835l-35.391-21.24c48.378-37.913 99.147-34.596 102.158-35.113 56.045 0 93.281 25.43 114.639 46.802 31.318 31.318 49.951 75.498 49.834 118.154 0 8.501 6.865 15.044 15 15.044h60c8.262 0 14.971-6.68 15-14.941.264-68.936-24.873-130.635-72.686-178.433z" fill="url(#SVGID_1_)"/></g></g><g><g><path d="m475.344 316.854-148.477 21.211c-6.299.908-11.338 5.654-12.598 11.88s1.553 12.568 7.002 15.835l35.273 21.182c-28.77 22.529-65.537 35.142-101.572 35.039-56.484.747-93.691-25.371-115.137-46.802-31.317-31.319-49.95-75.499-49.833-118.155 0-8.501-6.865-15.044-15-15.044h-60c-8.262 0-14.971 6.68-15 14.941-.264 68.936 24.873 130.635 72.686 178.433 46.136 46.15 108.571 74.849 183.223 76.626 60.352 0 119.414-22.178 165.059-61.45l22.412 37.368c3.281 5.449 9.609 8.203 15.82 6.987 6.24-1.26 10.986-6.299 11.895-12.583l21.211-148.491c1.447-10.041-7.368-18.466-16.964-16.977z" fill="url(#SVGID_2_)"/></g></g></g></svg>